<svg width="32" height="9" fill="none" xmlns="http://www.w3.org/2000/svg">
<path d="M0.756 8V0.271999H4.2C4.792 0.271999 5.28 0.383999 5.664 0.607999C6.048 0.832 6.332 1.14 6.516 1.532C6.7 1.916 6.792 2.356 6.792 2.852C6.792 3.62 6.552 4.236 6.072 4.7C5.6 5.164 4.96 5.396 4.152 5.396H2.064V8H0.756ZM2.064 4.364H3.912C4.432 4.364 4.824 4.228 5.088 3.956C5.352 3.684 5.484 3.316 5.484 2.852C5.484 2.356 5.356 1.972 5.1 1.7C4.852 1.428 4.476 1.292 3.972 1.292H2.064V4.364ZM7.83413 8V0.271999H9.14213V8H7.83413ZM10.6583 8V0.271999H16.0463V1.292H11.9663V3.632H15.6023V4.64H11.9663V6.992H16.0463V8H10.6583ZM17.256 8V0.271999H20.808C21.672 0.271999 22.3 0.496 22.692 0.944C23.092 1.384 23.292 1.984 23.292 2.744C23.292 3.288 23.156 3.752 22.884 4.136C22.612 4.52 22.22 4.788 21.708 4.94C21.852 5.044 21.964 5.156 22.044 5.276C22.124 5.396 22.204 5.556 22.284 5.756L23.256 8H21.912L20.964 5.84C20.876 5.632 20.768 5.484 20.64 5.396C20.52 5.308 20.312 5.264 20.016 5.264H18.564V8H17.256ZM18.564 4.208H20.46C20.932 4.208 21.304 4.092 21.576 3.86C21.848 3.628 21.984 3.256 21.984 2.744C21.984 1.776 21.516 1.292 20.58 1.292H18.564V4.208ZM27.8244 8.12C26.6004 8.12 25.6844 7.8 25.0764 7.16C24.4684 6.512 24.1644 5.512 24.1644 4.16C24.1644 2.752 24.4684 1.732 25.0764 1.1C25.6844 0.467999 26.6004 0.151999 27.8244 0.151999C29.0564 0.151999 29.9724 0.467999 30.5724 1.1C31.1804 1.732 31.4844 2.752 31.4844 4.16C31.4844 5.512 31.1804 6.512 30.5724 7.16C29.9724 7.8 29.0564 8.12 27.8244 8.12ZM27.8244 7.016C28.6324 7.016 29.2244 6.796 29.6004 6.356C29.9844 5.908 30.1764 5.176 30.1764 4.16C30.1764 3.088 29.9844 2.34 29.6004 1.916C29.2244 1.484 28.6324 1.268 27.8244 1.268C27.0244 1.268 26.4324 1.484 26.0484 1.916C25.6724 2.34 25.4844 3.088 25.4844 4.16C25.4844 5.176 25.6724 5.908 26.0484 6.356C26.4324 6.796 27.0244 7.016 27.8244 7.016Z" fill="#fff"/>
</svg>
